<?xml version="1.0" standalone="no"?><!DOCTYPE svg PUBLIC "-//W3C//DTD SVG 1.1//EN" "http://www.w3.org/Graphics/SVG/1.1/DTD/svg11.dtd"><svg t="1684854886992" class="icon" viewBox="0 0 1035 1024" version="1.1" xmlns="http://www.w3.org/2000/svg" p-id="2492" xmlns:xlink="http://www.w3.org/1999/xlink" width="202.1484375" height="200"><path d="M967.46496 821.64224c-13.68576-2.76992-31.5904-2.3296-39.95648-10.8288-48.98304-49.84832-95.72864-101.91872-134.8608-144.18432l-20.17792-21.11488c28.50816-20.08064 69.87776-56.23296 103.71584-113.98144h62.02368v-11.20256h-55.7312a393.5744 393.5744 0 0 0 10.29632-20.38784h45.43488v-11.20768h-40.38144c34.78016-80.37376 52.46976-192.73728 19.05664-346.25024 0 0-62.37696 20.90496-100.25984 91.81696 0 0-156.98432 2.37056-189.2352 11.85792 0 0-23.04-64.28672-107.62752-87.35232 0 0-38.22592 117.12512 4.37248 251.81696-60.17536 26.74688-118.528 49.52576-172.30848 80.23552-59.55072 34.02752-113.73568 77.45024-176.69632 121.21088-15.31392-38.9632-36.3776-77.95712-45.78304-119.58272-18.9696-83.94752 42.07104-154.12224 128.256-153.65632 20.08064 0.10752 41.85088-3.2256 47.08864 25.65632 0.78336 4.31616 8.64256 8.76032 14.08512 10.5984 39.54176 13.31712 78.87872 12.75392 122.37824-2.41664-28.50816-36.75648-62.66368-56.2176-103.92576-63.47264-7.1424-1.2544-15.26272 3.43552-22.9888 5.0944-11.8784 2.56-24.1408 8.02816-35.65056 6.78912C187.41248 311.26528 117.76 363.65312 108.45696 452.13184c-5.23264 49.664 12.4928 94.11584 37.0688 136.15616 8.0384 13.73696 16.6144 27.1616 24.81152 40.51968C105.61024 704.33792 42.91072 778.14784 0 872.59136h117.6832c-6.0928-76.32896 25.1904-129.3312 92.416-161.61792 17.63328-8.46848 30.83776-7.52128 46.11072 7.2192 24.86272 23.97696 54.64576 42.91072 78.92992 67.35872 37.3248 37.5808 81.6384 33.4848 129.01888 29.0048-1.38752-33.22368-22.6304-38.02624-47.96416-39.10144-9.02656-0.37888-23.17824-1.3568-25.92256-6.7072-10.51648-20.5312-17.34144-42.94656-28.35456-72.06912 44.50304 7.42912 78.63296 11.99104 112.27136 18.93888 148.93056 30.78144 286.40256 92.01152 419.72736 162.66752 47.16544 25.00096 93.89568 12.69248 141.34272 15.14496-0.01024-40.07936-22.84032-62.68928-67.79392-71.78752zM527.12448 189.07136c15.48288 78.93504 68.93568 88.94976 68.93568 88.94976 29.88544-17.54624 103.19872-20.56192 103.19872-20.56192l23.58784 60.22656 27.22816-64.3584c40.7296-1.67424 110.56128 9.73312 110.56128 9.73312 25.71776-19.41504 49.35168-89.73312 49.35168-89.73312 13.9008 82.8416 11.67872 152.52992 0.128 210.69824l-27.97056 16.03072 23.25504 5.02784a433.90976 433.90976 0 0 1-9.856 33.83296l-21.55008 12.09856h17.23904a403.31776 403.31776 0 0 1-16.26112 37.70368h-40.7296v11.20768h34.95936a373.67296 373.67296 0 0 1-11.68896 20.38784h-23.2704v11.20256h16.09728c-52.75648 79.3088-116.38272 110.06976-116.38272 110.06976-52.21888-33.0496-91.8272-70.79936-121.8304-110.06976h18.29888v-11.20256h-26.5984a428.88704 428.88704 0 0 1-13.68064-20.38784h40.27904v-11.20768h-47.06816a428.13952 428.13952 0 0 1-24.94976-49.71008l19.0208-3.28192-25.1136-11.86304a442.6752 442.6752 0 0 1-11.06944-32.97792h36.18304l-43.63776-28.76416c-21.7344-96.7424-6.66624-173.05088-6.66624-173.05088zM92.5952 833.82784c-5.5296 30.61248-32.32256 12.60032-58.5728 17.89952 43.15136-76.9024 93.09696-138.92096 148.67456-201.2416l30.85312 33.12128c-69.82144 30.33088-108.14464 79.36512-120.95488 150.2208z m811.2128 23.58272c-111.08352-58.26048-224.48128-111.62112-346.05056-144.37888-52.8896-14.24896-107.008-24.7296-161.16224-33.10592-23.05024-3.55328-26.96704-13.15328-23.7056-32.05632 2.2528-13.05088 6.0416-25.99936 6.49216-39.08096 0.24576-7.16288-5.03296-14.52032-7.81312-21.78048-5.7344 5.65248-14.22848 10.34752-16.59904 17.1776-4.62336 13.29152-5.41696 27.85792-8.576 41.71776-1.77664 7.77216-4.38784 21.3504-7.87968 21.74976-30.00832 3.56864-60.91776 9.02656-90.24 4.7872-14.40768-2.08384-26.4192-23.1168-38.528-36.46464-2.10944-2.3296-1.11616-11.06944 1.536-13.52192 18.60608-17.29024 37.44256-34.48832 57.66144-49.792 4.40832-3.328 15.26784-0.34304 22.13888 2.3296 9.00608 3.52256 16.99328 9.64096 27.14624 15.65184 7.7824-23.33184-21.23264-57.58976 17.58208-62.84288 21.48864-2.92352 45.2096 10.56256 73.25184 18.0992l-23.20896-51.57888c45.90592-5.42208 65.48992 40.95488 107.63264 45.94688-6.35392-20.57728-10.4704-39.07072-17.7664-56.2176-8.73472-20.57728-2.11456-30.6944 18.18624-35.13344 3.9424-0.8704 7.68-2.67264 11.53536-3.97824 10.22464-8.08448 19.06176-11.37664 26.86464-10.97728a411.9552 411.9552 0 0 0 25.78432 54.7584h-32.62464v11.20768h39.17824a417.8176 417.8176 0 0 0 13.16864 20.38784H525.4656v11.20256h60.34432c35.09248 47.6416 84.25472 93.8496 152.66816 134.38976 0 0 4.9408-2.21696 13.17888-7.00928 3.23072 4.0192 13.12768 16.10752 21.88288 24.6272-3.64032 8.37632-9.58464 22.02624-15.89248 36.54656 20.28032 8.94976 43.53024-27.7504 62.3616 12.84096l-36.42368 21.60128c1.7664 2.53952 3.52256 5.0688 5.2736 7.60832 3.46624 0.54784 7.63904 2.66752 10.27584 1.4336 38.17472-17.88416 62.48448 1.10592 84.43392 29.89568 21.32992 27.9808 45.32736 51.3024 85.20192 50.47808 11.37152-0.22528 22.94784 10.56256 33.51552 19.93216-33.82784 6.31296-66.14528 10.48576-98.47808-6.4512z" fill="" p-id="2493"></path><path d="M883.5584 793.46176c-21.94432-28.8-46.25408-47.79008-84.4288-29.9008-2.63168 1.2288-6.8096-0.88576-10.27584-1.42848l-5.2736-7.61344c12.8512-7.60832 25.7024-15.23712 36.42368-21.59616-18.82624-40.6016-42.07616-3.90144-62.35648-12.84096 6.30272-14.52032 12.25728-28.17024 15.89248-36.55168-8.7552-8.51968-18.6624-20.59776-21.87776-24.62208-8.24832 4.79744-13.17888 6.99904-13.17888 6.99904-68.41856-40.52992-117.59104-86.74304-152.67328-134.37952H525.4656v-11.20768h52.36224a414.12608 414.12608 0 0 1-13.17376-20.38784h-39.17824v-11.20768h32.62464a410.97728 410.97728 0 0 1-25.78432-54.7584c-7.79264-0.39936-16.64 2.88768-26.86464 10.97728-3.18976 2.5344-7.59296 3.10272-11.53536 3.97824-20.29568 4.44416-26.92096 14.55616-18.18624 35.13344 7.29088 17.14688 11.41248 35.64544 17.7664 56.22272-42.14272-4.99712-61.72672-51.37408-107.63264-45.952l23.20896 51.57888c-28.04224-7.54176-51.75808-21.02784-73.25184-18.0992-38.81472 5.25824-9.79968 39.52128-17.58208 62.848-10.15296-6.02112-18.14016-12.12928-27.14624-15.66208-6.86592-2.66752-17.73056-5.65248-22.13888-2.3296-20.21888 15.29856-39.05024 32.50176-57.66144 49.79712-2.65216 2.45248-3.64032 11.19744-1.536 13.52192 12.1088 13.35296 24.12032 34.37568 38.528 36.46464 29.32224 4.23936 60.23168-1.20832 90.24-4.78208 3.48672-0.40448 6.10304-13.98272 7.87968-21.74976 3.15904-13.87008 3.95264-28.4416 8.576-41.72288 2.37056-6.8352 10.86976-11.52512 16.59904-17.18272 2.78016 7.26016 8.05888 14.61248 7.81312 21.78048-0.44544 13.08672-4.23936 26.04032-6.49216 39.08608-3.26144 18.8928 0.65536 28.4928 23.7056 32.05632 54.14912 8.3712 108.27264 18.86208 161.16736 33.11104 121.55904 32.75264 234.96192 86.11328 346.04032 144.37376 32.32768 16.9472 64.66048 12.76416 98.46784 6.45632-10.56256-9.3696-22.13888-20.15744-33.51552-19.93216-39.87456 0.80896-63.87712-22.49728-85.20704-50.47808zM34.0224 851.73248c26.25536-5.2992 53.0432 12.70784 58.5728-17.89952 12.81024-70.87104 51.13344-119.88992 120.94976-150.2208l-30.85312-33.12128c-55.5776 62.33088-105.5232 124.34432-148.66944 201.2416z" fill="#D1A31A" p-id="2494"></path><path d="M728.65792 508.27776l41.90208-25.6768-90.64448-2.21184 48.7424 27.88864z m55.35232-37.64736c-4.62848-16.29184-7.34208-49.68448-7.34208-49.68448 0.20992-1.75616 0.47616-3.4304 0.75264-5.09952h-93.23008c-6.08256 29.80864-14.53568 54.77888-14.53568 54.77888l114.3552 0.00512z" fill="#FFDC76" p-id="2495"></path><path d="M577.42848 390.8864h-36.18304a442.6752 442.6752 0 0 0 11.06944 32.97792l25.1136 11.86304-19.0208 3.28192a428.13952 428.13952 0 0 0 24.94976 49.71008h47.06816v11.20768h-40.27904a428.88704 428.88704 0 0 0 13.68064 20.38784h26.5984v11.20256h-18.29888c30.0032 39.2704 69.61152 77.02016 121.8304 110.06976 0 0 63.63136-30.76096 116.38272-110.06976h-16.09728v-11.20256h23.2704a373.67296 373.67296 0 0 0 11.68896-20.38784h-34.95936v-11.20768h40.7296a403.31776 403.31776 0 0 0 16.26112-37.70368h-17.23904l21.55008-12.09856a436.15232 436.15232 0 0 0 9.856-33.83296l-23.25504-5.02784 27.97056-16.03072c11.55072-58.16832 13.76256-127.85664-0.128-210.69824 0 0-23.62368 70.31808-49.35168 89.73312 0 0-69.83168-11.40736-110.56128-9.73312l-27.22816 64.3584-23.58784-60.22656s-73.31328 3.01056-103.19872 20.56192c0 0-53.44768-10.01472-68.93568-88.94976 0 0-15.06816 76.30848 6.66624 173.05088l43.63776 28.76416z m59.62752-68.85888c56.71936-23.1424 57.92256 32.50176 49.3568 82.16064h93.76256c16.59904-53.49888 76.4928-51.52768 76.4928-51.52768v10.7008c-39.41376 2.46272-56.56064 20.352-63.01184 40.832h44.672v11.65824h-47.232c-3.69152 27.2128 6.97344 54.77888 6.97344 54.77888h17.83296l-74.88 44.71808 40.73984 23.30624-5.09952 9.68704-47.17056-26.09152-47.08864 28.12928-6.6304-9.69216 41.29792-25.30816-64.49152-35.6608v-1.32096l-0.512-7.76704c9.00096-7.80288 15.58016-32.512 19.88608-54.77888h-51.74272v-11.65824h53.84192c2.688-16.06656 4.00896-28.60032 4.00896-28.60032a133.7344 133.7344 0 0 0 0.34304-9.15968c0.1792-49.0752-30.1568-35.93728-30.1568-35.93728-18.92864 6.89664-38.2208 31.33952-38.2208 31.33952l-8.66304-7.13216c-1.00352-5.6064 35.69152-32.67584 35.69152-32.67584z" fill="#FFDC76" p-id="2496"></path><path d="M648.25856 330.496s30.34112-13.13792 30.16192 35.93728c-0.00512 2.8416-0.11776 5.888-0.33792 9.15968 0 0-1.3312 12.53376-4.0192 28.60032h-53.84192v11.65824h51.74784c-4.3008 22.26688-10.88512 46.976-19.8912 54.77888l0.51712 7.76704v1.32096l64.4864 35.6608-41.29792 25.30816 6.63552 9.69216 47.08352-28.12928 47.1808 26.09152 5.09952-9.68704-40.73984-23.30624 74.86976-44.71808h-17.82784s-10.66496-27.56608-6.96832-54.77888h47.22176v-11.65824h-44.66176c6.44096-20.48 23.58272-38.36416 63.01184-40.832v-10.7008s-59.89888-1.96608-76.49792 51.52768h-93.76256c8.576-49.664 7.36256-105.30304-49.36192-82.16064 0 0-36.69504 27.06944-35.67616 32.67072l8.66304 7.13216c-0.01536 0.00512 19.28192-24.43776 38.20544-31.3344z m80.39936 177.78176l-48.74752-27.89376 90.64448 2.21696-41.89696 25.6768z m48.77312-92.42624c-0.28672 1.664-0.54784 3.33824-0.74752 5.09952 0 0 2.69824 33.39264 7.33696 49.68448h-114.34496s8.43776-24.97024 14.53568-54.77888l93.21984-0.00512z" fill="" p-id="2497"></path></svg>